<svg xmlns="http://www.w3.org/2000/svg" viewBox="0 0 100 91.3" xml:space="preserve">
  <path fill="#000000" d="M100 39.2 72.5 52.1V41c7.3-3.5 12.3-10.9 12.3-19.5C84.7 9.7 75.1 0 63.2 0c-9.9 0-18.3 6.7-20.8 15.8C39.8 6.7 31.5 0 21.6 0 9.7 0 0 9.7 0 21.6c0 8.7 5.1 16.2 12.5 19.6v47.4h59.9V78.4L100 91.3V39.2zm-68.9 1.7c5.5-2.7 9.6-7.6 11.3-13.6 1.7 6 5.8 10.9 11.3 13.6H31.1zM63.2 5.6c8.8 0 15.9 7.1 15.9 15.9S72 37.4 63.2 37.4s-15.9-7.1-15.9-15.9c-.1-8.7 7.1-15.9 15.9-15.9zm-57.6 16c0-8.8 7.1-15.9 15.9-15.9s15.9 7.1 15.9 15.9-7.1 15.9-15.9 15.9c-8.7 0-15.9-7.1-15.9-15.9zm16 8.3c-4.6 0-8.4-3.7-8.4-8.4 0-4.6 3.7-8.4 8.4-8.4 4.6 0 8.4 3.7 8.4 8.4-.1 4.7-3.8 8.4-8.4 8.4zm33.2-8.3c0-4.6 3.7-8.4 8.4-8.4 4.6 0 8.4 3.7 8.4 8.4 0 4.6-3.7 8.4-8.4 8.4-4.7-.1-8.4-3.8-8.4-8.4z"/>
</svg>
